<svg version="1.1" width="192" height="42" viewBox="0 0 320 70" xmlns="http://www.w3.org/2000/svg" xmlns:xlink="http://www.w3.org/1999/xlink"><defs xmlns="http://www.w3.org/2000/svg"><style xmlns="http://www.w3.org/1999/xhtml" type="text/css">@import url(https://fonts.googleapis.com/css?family=Lato:regular,100,300,700,900,italic,100italic,300italic,700italic,900italic);</style></defs><g xmlns="http://www.w3.org/2000/svg" id="obj_1"><g id="obj_3" transform="matrix(1,0,0,1,6.49,17.978)" opacity="1" display="inline"><path d="M 15.27 0.09 C 17.55 0.09 19.625 0.46 21.495 1.2 C 23.365 1.94 24.965 2.99 26.295 4.35 C 27.625 5.71 28.65 7.37 29.37 9.33 C 30.09 11.29 30.45 13.48 30.45 15.9 C 30.45 18.34 30.09 20.54 29.37 22.5 C 28.65 24.46 27.625 26.13 26.295 27.51 C 24.965 28.89 23.365 29.95 21.495 30.69 C 19.625 31.43 17.55 31.8 15.27 31.8 C 12.97 31.8 10.88 31.43 9 30.69 C 7.12 29.95 5.515 28.89 4.185 27.51 C 2.855 26.13 1.825 24.46 1.095 22.5 C 0.365 20.54 0 18.34 0 15.9 C 0 13.48 0.365 11.29 1.095 9.33 C 1.825 7.37 2.855 5.71 4.185 4.35 C 5.515 2.99 7.12 1.94 9 1.2 C 10.88 0.46 12.97 0.09 15.27 0.09 M 15.27 26.1 C 17.83 26.1 19.725 25.24 20.955 23.52 C 22.185 21.8 22.8 19.28 22.8 15.96 C 22.8 12.64 22.185 10.11 20.955 8.37 C 19.725 6.63 17.83 5.76 15.27 5.76 C 12.67 5.76 10.745 6.635 9.495 8.385 C 8.245 10.135 7.62 12.66 7.62 15.96 C 7.62 19.26 8.245 21.775 9.495 23.505 C 10.745 25.235 12.67 26.1 15.27 26.1 Z M 43.53 23.37 C 44.37 24.39 45.285 25.11 46.275 25.53 C 47.265 25.95 48.34 26.16 49.5 26.16 C 50.62 26.16 51.63 25.95 52.53 25.53 C 53.43 25.11 54.195 24.47 54.825 23.61 C 55.455 22.75 55.94 21.665 56.28 20.355 C 56.62 19.045 56.79 17.5 56.79 15.72 C 56.79 13.92 56.645 12.395 56.355 11.145 C 56.065 9.895 55.65 8.88 55.11 8.1 C 54.57 7.32 53.915 6.75 53.145 6.39 C 52.375 6.03 51.5 5.85 50.52 5.85 C 48.98 5.85 47.67 6.175 46.59 6.825 C 45.51 7.475 44.49 8.39 43.53 9.57 L 43.53 23.37 M 43.14 4.77 C 44.4 3.35 45.83 2.2 47.43 1.32 C 49.03 0.44 50.91 0 53.07 0 C 54.75 0 56.285 0.35 57.675 1.05 C 59.065 1.75 60.265 2.765 61.275 4.095 C 62.285 5.425 63.065 7.065 63.615 9.015 C 64.165 10.965 64.44 13.2 64.44 15.72 C 64.44 18.02 64.13 20.15 63.51 22.11 C 62.89 24.07 62.005 25.77 60.855 27.21 C 59.705 28.65 58.315 29.775 56.685 30.585 C 55.055 31.395 53.23 31.8 51.21 31.8 C 49.49 31.8 48.02 31.535 46.8 31.005 C 45.58 30.475 44.49 29.74 43.53 28.8 L 43.53 41.4 L 36.12 41.4 L 36.12 0.57 L 40.65 0.57 C 41.61 0.57 42.24 1.02 42.54 1.92 L 43.14 4.77 Z M 88.98 6.57 C 88.78 6.89 88.57 7.115 88.35 7.245 C 88.13 7.375 87.85 7.44 87.51 7.44 C 87.15 7.44 86.765 7.34 86.355 7.14 C 85.945 6.94 85.47 6.715 84.93 6.465 C 84.39 6.215 83.775 5.99 83.085 5.79 C 82.395 5.59 81.58 5.49 80.64 5.49 C 79.18 5.49 78.035 5.8 77.205 6.42 C 76.375 7.04 75.96 7.85 75.96 8.85 C 75.96 9.51 76.175 10.065 76.605 10.515 C 77.035 10.965 77.605 11.36 78.315 11.7 C 79.025 12.04 79.83 12.345 80.73 12.615 C 81.63 12.885 82.545 13.18 83.475 13.5 C 84.405 13.82 85.32 14.185 86.22 14.595 C 87.12 15.005 87.925 15.525 88.635 16.155 C 89.345 16.785 89.915 17.54 90.345 18.42 C 90.775 19.3 90.99 20.36 90.99 21.6 C 90.99 23.08 90.725 24.445 90.195 25.695 C 89.665 26.945 88.88 28.025 87.84 28.935 C 86.8 29.845 85.515 30.555 83.985 31.065 C 82.455 31.575 80.69 31.83 78.69 31.83 C 77.63 31.83 76.595 31.735 75.585 31.545 C 74.575 31.355 73.605 31.09 72.675 30.75 C 71.745 30.41 70.885 30.01 70.095 29.55 C 69.305 29.09 68.61 28.59 68.01 28.05 L 69.72 25.23 C 69.94 24.89 70.2 24.63 70.5 24.45 C 70.8 24.27 71.18 24.18 71.64 24.18 C 72.1 24.18 72.535 24.31 72.945 24.57 C 73.355 24.83 73.83 25.11 74.37 25.41 C 74.91 25.71 75.545 25.99 76.275 26.25 C 77.005 26.51 77.93 26.64 79.05 26.64 C 79.93 26.64 80.685 26.535 81.315 26.325 C 81.945 26.115 82.465 25.84 82.875 25.5 C 83.285 25.16 83.585 24.765 83.775 24.315 C 83.965 23.865 84.06 23.4 84.06 22.92 C 84.06 22.2 83.845 21.61 83.415 21.15 C 82.985 20.69 82.415 20.29 81.705 19.95 C 80.995 19.61 80.185 19.305 79.275 19.035 C 78.365 18.765 77.435 18.47 76.485 18.15 C 75.535 17.83 74.605 17.455 73.695 17.025 C 72.785 16.595 71.975 16.05 71.265 15.39 C 70.555 14.73 69.985 13.92 69.555 12.96 C 69.125 12 68.91 10.84 68.91 9.48 C 68.91 8.22 69.16 7.02 69.66 5.88 C 70.16 4.74 70.895 3.745 71.865 2.895 C 72.835 2.045 74.045 1.365 75.495 0.855 C 76.945 0.345 78.62 0.09 80.52 0.09 C 82.64 0.09 84.57 0.44 86.31 1.14 C 88.05 1.84 89.5 2.76 90.66 3.9 L 88.98 6.57 Z " fill-opacity="1" fill="#f7b13f" stroke="none" stroke-width="1" stroke-linecap="square" stroke-linejoin="miter"/><defs/></g><g id="obj_4" transform="matrix(1,0,0,1,100.65625,49.125)" opacity="1" display="inline"><text x="0" y="0" font-size="60" letter-spacing="0" font-family="Arial" font-weight="700" font-style="normal" fill-opacity="1" fill="#274589" stroke="none" stroke-width="1" stroke-linecap="square" stroke-linejoin="miter"><tspan x="0" y="0">matters</tspan></text><defs/></g><g id="obj_6" transform="matrix(1,0,0,1,6.744,59.256)" opacity="1" display="inline"><path d="M 0 0 L 307.915 0 L 307.915 4 L 0 4 L 0 0 Z " fill-opacity="1" fill="#f7b13f" stroke="none" stroke-width="1" stroke-linecap="square" stroke-linejoin="miter"/><defs/></g></g></svg>